<svg width="102" height="24" viewBox="0 0 102 24" fill="none" xmlns="http://www.w3.org/2000/svg">
<path d="M0.792026 23.4299C0.572026 23.4299 0.385026 23.3529 0.231025 23.1989C0.0770254 23.0449 2.54437e-05 22.8579 2.54437e-05 22.6379V1.15493C2.54437e-05 0.91293 0.0660255 0.71493 0.198026 0.560931C0.352026 0.40693 0.550026 0.32993 0.792026 0.32993H15.312C15.554 0.32993 15.752 0.40693 15.906 0.560931C16.06 0.71493 16.137 0.91293 16.137 1.15493V3.33293C16.137 3.57493 16.06 3.77293 15.906 3.92693C15.752 4.05893 15.554 4.12493 15.312 4.12493H4.45503V9.96593H14.586C14.828 9.96593 15.026 10.0429 15.18 10.1969C15.334 10.3289 15.411 10.5159 15.411 10.7579V12.8039C15.411 13.0459 15.334 13.2439 15.18 13.3979C15.026 13.5299 14.828 13.5959 14.586 13.5959H4.45503V19.6349H15.576C15.818 19.6349 16.016 19.7119 16.17 19.8659C16.324 20.0199 16.401 20.2179 16.401 20.4599V22.6379C16.401 22.8799 16.324 23.0779 16.17 23.2319C16.016 23.3639 15.818 23.4299 15.576 23.4299H0.792026Z" fill="#FF6838"/>
<path d="M22.9703 23.4299C22.7503 23.4299 22.5633 23.3529 22.4093 23.1989C22.2553 23.0449 22.1783 22.8579 22.1783 22.6379V1.15493C22.1783 0.91293 22.2443 0.71493 22.3763 0.560931C22.5303 0.40693 22.7283 0.32993 22.9703 0.32993H37.2923C37.5343 0.32993 37.7323 0.40693 37.8863 0.560931C38.0403 0.71493 38.1173 0.91293 38.1173 1.15493V3.46493C38.1173 3.70693 38.0403 3.90493 37.8863 4.05893C37.7323 4.19093 37.5343 4.25693 37.2923 4.25693H26.6993V10.5269H36.6323C36.8743 10.5269 37.0723 10.6039 37.2263 10.7579C37.3803 10.9119 37.4573 11.1099 37.4573 11.3519V13.6619C37.4573 13.9039 37.3803 14.1019 37.2263 14.2559C37.0723 14.3879 36.8743 14.4539 36.6323 14.4539H26.6993V22.6379C26.6993 22.8799 26.6223 23.0779 26.4683 23.2319C26.3143 23.3639 26.1163 23.4299 25.8743 23.4299H22.9703ZM50.5194 23.7599C47.9454 23.7599 45.9544 23.0999 44.5464 21.7799C43.1384 20.4379 42.3794 18.6119 42.2694 16.3019L42.2364 14.8499L42.2694 13.3979C42.3794 11.1099 43.1494 9.29493 44.5794 7.95293C46.0094 6.61093 47.9894 5.93993 50.5194 5.93993C53.0494 5.93993 55.0294 6.61093 56.4594 7.95293C57.8894 9.29493 58.6594 11.1099 58.7694 13.3979C58.7914 13.6619 58.8024 14.1459 58.8024 14.8499C58.8024 15.5539 58.7914 16.0379 58.7694 16.3019C58.6594 18.6119 57.9004 20.4379 56.4924 21.7799C55.0844 23.0999 53.0934 23.7599 50.5194 23.7599ZM50.5194 20.4929C51.6854 20.4929 52.5874 20.1299 53.2254 19.4039C53.8634 18.6559 54.2154 17.5669 54.2814 16.1369C54.3034 15.9169 54.3144 15.4879 54.3144 14.8499C54.3144 14.2119 54.3034 13.7829 54.2814 13.5629C54.2154 12.1329 53.8634 11.0549 53.2254 10.3289C52.5874 9.58093 51.6854 9.20693 50.5194 9.20693C49.3534 9.20693 48.4514 9.58093 47.8134 10.3289C47.1754 11.0549 46.8234 12.1329 46.7574 13.5629L46.7244 14.8499L46.7574 16.1369C46.8234 17.5669 47.1754 18.6559 47.8134 19.4039C48.4514 20.1299 49.3534 20.4929 50.5194 20.4929ZM71.6987 23.7599C69.1247 23.7599 67.1337 23.0999 65.7257 21.7799C64.3177 20.4379 63.5587 18.6119 63.4487 16.3019L63.4157 14.8499L63.4487 13.3979C63.5587 11.1099 64.3287 9.29493 65.7587 7.95293C67.1887 6.61093 69.1687 5.93993 71.6987 5.93993C74.2287 5.93993 76.2087 6.61093 77.6387 7.95293C79.0687 9.29493 79.8387 11.1099 79.9487 13.3979C79.9707 13.6619 79.9817 14.1459 79.9817 14.8499C79.9817 15.5539 79.9707 16.0379 79.9487 16.3019C79.8387 18.6119 79.0797 20.4379 77.6717 21.7799C76.2637 23.0999 74.2727 23.7599 71.6987 23.7599ZM71.6987 20.4929C72.8647 20.4929 73.7667 20.1299 74.4047 19.4039C75.0427 18.6559 75.3947 17.5669 75.4607 16.1369C75.4827 15.9169 75.4937 15.4879 75.4937 14.8499C75.4937 14.2119 75.4827 13.7829 75.4607 13.5629C75.3947 12.1329 75.0427 11.0549 74.4047 10.3289C73.7667 9.58093 72.8647 9.20693 71.6987 9.20693C70.5327 9.20693 69.6307 9.58093 68.9927 10.3289C68.3547 11.0549 68.0027 12.1329 67.9367 13.5629L67.9037 14.8499L67.9367 16.1369C68.0027 17.5669 68.3547 18.6559 68.9927 19.4039C69.6307 20.1299 70.5327 20.4929 71.6987 20.4929ZM91.657 23.7599C89.435 23.7599 87.73 23.0449 86.542 21.6149C85.354 20.1849 84.716 18.2819 84.628 15.9059L84.595 14.8169L84.628 13.7609C84.694 11.4509 85.321 9.56993 86.509 8.11793C87.719 6.66593 89.435 5.93993 91.657 5.93993C93.791 5.93993 95.485 6.66593 96.739 8.11793V0.79193C96.739 0.549931 96.816 0.362931 96.97 0.230931C97.124 0.0769307 97.311 -6.96182e-05 97.531 -6.96182e-05H100.336C100.578 -6.96182e-05 100.765 0.0769307 100.897 0.230931C101.051 0.362931 101.128 0.549931 101.128 0.79193V22.6379C101.128 22.8579 101.051 23.0449 100.897 23.1989C100.765 23.3529 100.578 23.4299 100.336 23.4299H97.729C97.509 23.4299 97.322 23.3529 97.168 23.1989C97.014 23.0449 96.937 22.8579 96.937 22.6379V21.4169C95.683 22.9789 93.923 23.7599 91.657 23.7599ZM92.878 20.2289C94.154 20.2289 95.1 19.8219 95.716 19.0079C96.332 18.1939 96.673 17.1929 96.739 16.0049C96.761 15.7409 96.772 15.3119 96.772 14.7179C96.772 14.1459 96.761 13.7279 96.739 13.4639C96.695 12.3639 96.343 11.4289 95.683 10.6589C95.045 9.86693 94.11 9.47093 92.878 9.47093C90.502 9.47093 89.237 10.9339 89.083 13.8599L89.05 14.8499L89.083 15.8399C89.237 18.7659 90.502 20.2289 92.878 20.2289Z" fill="#363853"/>
</svg>
